# xmcd
#
# Track frame offsets:
#  150
#  10273
#  21816
#  33839
#  45682
#  56249
#  68468
#  79474
#  91573
#  101939
#
# Disc length: 1506 seconds
#
# Revision: 0
# Processed by: cddbd v1.5.1PL0 Copyright (c) Steve Scherf et al.
# Submitted via: Collectorz.com Music Collector 6.9
#
DISCID=7605e00a
DTITLE=jean shepard - Hello Old Broken Heart
DYEAR=1900
DGENRE=Country
TTITLE0=Hello Old Broken Heart
TTITLE1=Be Honest With Me
TTITLE2=Did You Tell Her About Me
TTITLE3=You Sent Her An Orchid
TTITLE4=You'll Come Crawlin
TTITLE5=The Mysteries Of Life
TTITLE6=A Passing Love Affair
TTITLE7=Sad Sigin' And Slow Ridin'
TTITLE8=I Married You For Love
TTITLE9=Just Give Me Love
EXTD=
EXTT0=
EXTT1=
EXTT2=
EXTT3=
EXTT4=
EXTT5=
EXTT6=
EXTT7=
EXTT8=
EXTT9=
PLAYORDER=
